<?xml version="1.0" encoding="UTF-8" standalone="no"?>
<svg
   xmlns:dc="http://purl.org/dc/elements/1.1/"
   xmlns:cc="http://creativecommons.org/ns#"
   xmlns:rdf="http://www.w3.org/1999/02/22-rdf-syntax-ns#"
   xmlns:svg="http://www.w3.org/2000/svg"
   xmlns="http://www.w3.org/2000/svg"
   xmlns:sodipodi="http://sodipodi.sourceforge.net/DTD/sodipodi-0.dtd"
   xmlns:inkscape="http://www.inkscape.org/namespaces/inkscape"
   enable-background="new 0 0 147 147"
   height="147px"
   id="Layer_1"
   version="1.1"
   viewBox="0 0 147 147"
   width="147px"
   xml:space="preserve"
   sodipodi:docname="if_globe-full_383130.svg"
   inkscape:version="0.92.2 (5c3e80d, 2017-08-06)"><metadata
     id="metadata13"><rdf:RDF><cc:Work
         rdf:about=""><dc:format>image/svg+xml</dc:format><dc:type
           rdf:resource="http://purl.org/dc/dcmitype/StillImage" /></cc:Work></rdf:RDF></metadata><defs
     id="defs11" /><sodipodi:namedview
     pagecolor="#ffffff"
     bordercolor="#666666"
     borderopacity="1"
     objecttolerance="10"
     gridtolerance="10"
     guidetolerance="10"
     inkscape:pageopacity="0"
     inkscape:pageshadow="2"
     inkscape:window-width="2299"
     inkscape:window-height="1174"
     id="namedview9"
     showgrid="false"
     inkscape:zoom="1.6054422"
     inkscape:cx="73.5"
     inkscape:cy="73.5"
     inkscape:window-x="0"
     inkscape:window-y="0"
     inkscape:window-maximized="0"
     inkscape:current-layer="g6" /><g
     id="g6"><path
       d="M73.75,0.5c-6.92,0-13.607,0.98-19.953,2.773l19.777,7.483l-5.271,6.324l9.487,9.486l1.054-10.541   l16.864,9.486L79.898,57.131l-6.324-5.274l-10.54,4.208l-5.271,2.091l14.757,5.486L80.953,77h12.648l12.646,2.716l12.646,4.95   L121,89.873l9.479-1.085l5.256,6.309l-12.678,23.182l-25.355,18.969l-1.071,6.091c29.246-9.611,50.37-37.125,50.37-69.587   C147,33.296,114.205,0.5,73.75,0.5z"
       fill="#231F20"
       id="path2"
       style="fill:#00006b;fill-opacity:1" /><path
       d="M90,136.189l4.963-12.648l2.729-8.432L81.942,98.245l4.245-14.755l-10.529-1.05l-4.217-6.315L48.24,60.33   L37.669,35.066l4.151-17.853l-13.501-0.9C11.379,29.729,0.5,50.463,0.5,73.75c0,40.455,32.545,73.25,73,73.25   c5.766,0,11.5-0.688,16.5-1.947V136.189z"
       fill="#231F20"
       id="path4"
       style="fill:#00006b;fill-opacity:1" /></g></svg>