<?xml version="1.0" encoding="UTF-8" standalone="no"?>
<svg
   xmlns:dc="http://purl.org/dc/elements/1.1/"
   xmlns:cc="http://creativecommons.org/ns#"
   xmlns:rdf="http://www.w3.org/1999/02/22-rdf-syntax-ns#"
   xmlns:svg="http://www.w3.org/2000/svg"
   xmlns="http://www.w3.org/2000/svg"
   xmlns:sodipodi="http://sodipodi.sourceforge.net/DTD/sodipodi-0.dtd"
   xmlns:inkscape="http://www.inkscape.org/namespaces/inkscape"
   enable-background="new 0 0 85 85"
   height="85px"
   id="Layer_1"
   version="1.1"
   viewBox="0 0 85 85"
   width="85px"
   xml:space="preserve"
   sodipodi:docname="if_info-alt_383122.svg"
   inkscape:version="0.92.2 (5c3e80d, 2017-08-06)"><metadata
     id="metadata9"><rdf:RDF><cc:Work
         rdf:about=""><dc:format>image/svg+xml</dc:format><dc:type
           rdf:resource="http://purl.org/dc/dcmitype/StillImage" /></cc:Work></rdf:RDF></metadata><defs
     id="defs7" /><sodipodi:namedview
     pagecolor="#ffffff"
     bordercolor="#666666"
     borderopacity="1"
     objecttolerance="10"
     gridtolerance="10"
     guidetolerance="10"
     inkscape:pageopacity="0"
     inkscape:pageshadow="2"
     inkscape:window-width="2324"
     inkscape:window-height="1324"
     id="namedview5"
     showgrid="false"
     inkscape:zoom="2.7764706"
     inkscape:cx="42.5"
     inkscape:cy="42.5"
     inkscape:window-x="0"
     inkscape:window-y="0"
     inkscape:window-maximized="0"
     inkscape:current-layer="Layer_1" /><path
     d="M42.5,0.003C19.028,0.003,0,19.031,0,42.503s19.028,42.5,42.5,42.5S85,65.976,85,42.503S65.972,0.003,42.5,0.003z   M42.288,66.27c0,0-1.972,1.311-3.32,1.305c-0.12,0.055-0.191,0.087-0.191,0.087l0.003-0.087c-0.283-0.013-0.568-0.053-0.855-0.125  l-0.426-0.105c-2.354-0.584-3.6-2.918-3.014-5.271l3.277-13.211l1.479-5.967c1.376-5.54-4.363,1.178-5.54-1.374  c-0.777-1.687,4.464-5.227,8.293-7.896c0,0,1.97-1.309,3.319-1.304c0.121-0.056,0.192-0.087,0.192-0.087l-0.005,0.087  c0.285,0.013,0.57,0.053,0.857,0.124l0.426,0.106c2.354,0.584,3.788,2.965,3.204,5.318l-3.276,13.212l-1.482,5.967  c-1.374,5.54,4.27-1.204,5.446,1.351C51.452,60.085,46.116,63.601,42.288,66.27z M50.594,24.976  c-0.818,3.295-4.152,5.304-7.446,4.486c-3.296-0.818-5.305-4.151-4.487-7.447c0.818-3.296,4.152-5.304,7.446-4.486  C49.403,18.346,51.411,21.68,50.594,24.976z"
     id="path2"
     style="fill:#00006b;fill-opacity:1" /></svg>